<svg width="200" height="30" viewBox="0 0 200 30" fill="none" xmlns="http://www.w3.org/2000/svg">
<g clip-path="url(#clip0_1385_6233)">
<path fill-rule="evenodd" clip-rule="evenodd" d="M58.4872 24.9141H62.6205V16.9313H70.2173V24.9141H74.3506V6.40552H70.2173V13.5193H62.6205V6.40552H58.4872V24.9141Z" fill="#231F20"/>
<path fill-rule="evenodd" clip-rule="evenodd" d="M84.3816 19.7316C84.3816 20.5364 84.2836 22.8218 81.3592 22.8218C80.1503 22.8218 79.072 22.4838 79.072 21.1158C79.072 19.7477 80.1176 19.3776 81.2775 19.1522C82.4375 18.943 83.7445 18.9108 84.3816 18.3797V19.7477V19.7316ZM79.4804 15.6437C79.6111 14.1952 80.526 13.6158 81.9474 13.6158C83.2707 13.6158 84.3653 13.8572 84.3653 15.4344C84.3653 17.0117 82.2414 16.8668 79.9379 17.1887C77.618 17.4945 75.3145 18.2188 75.3145 21.2606C75.3145 24.0128 77.3729 25.2842 79.9379 25.2842C81.5879 25.2842 83.336 24.8497 84.5123 23.6265C84.545 24.061 84.643 24.5117 84.7737 24.914H88.5639C88.2208 24.3668 88.0901 23.1598 88.0901 21.9366V14.9677C88.0901 11.7488 84.8227 11.1533 82.1107 11.1533C79.0557 11.1533 75.9353 12.1834 75.7229 15.6437H79.4641H79.4804Z" fill="#231F20"/>
<path fill-rule="evenodd" clip-rule="evenodd" d="M89.3318 29.6297H93.073V23.2563H93.122C94.0206 24.5761 95.5726 25.2842 97.2063 25.2842C101.176 25.2842 103.186 21.9366 103.186 18.3636C103.186 14.5492 101.258 11.1533 97.0103 11.1533C95.3275 11.1533 93.8572 11.7971 92.9586 13.2295H92.9096V11.5235H89.3645V29.6458L89.3318 29.6297ZM96.1934 22.4999C93.7755 22.4999 92.926 20.4237 92.926 18.251C92.926 16.0782 93.7102 13.9216 96.1607 13.9216C98.6113 13.9216 99.4282 16.1265 99.4282 18.251C99.4282 20.3754 98.644 22.4999 96.1934 22.4999Z" fill="#231F20"/>
<path fill-rule="evenodd" clip-rule="evenodd" d="M112.727 19.7316C112.727 20.5364 112.629 22.8218 109.704 22.8218C108.495 22.8218 107.417 22.4838 107.417 21.1158C107.417 19.7477 108.463 19.3776 109.623 19.1522C110.783 18.943 112.09 18.9108 112.727 18.3797V19.7477V19.7316ZM107.826 15.6437C107.956 14.1952 108.871 13.6158 110.292 13.6158C111.616 13.6158 112.71 13.8572 112.71 15.4344C112.71 17.0117 110.587 16.8668 108.299 17.1887C105.979 17.4945 103.676 18.2188 103.676 21.2606C103.676 24.0128 105.734 25.2842 108.299 25.2842C109.949 25.2842 111.697 24.8497 112.874 23.6265C112.906 24.061 113.004 24.5117 113.135 24.914H116.925C116.582 24.3668 116.452 23.1598 116.452 21.9366V14.9677C116.452 11.7488 113.184 11.1533 110.472 11.1533C107.417 11.1533 104.297 12.1834 104.084 15.6437H107.826Z" fill="#231F20"/>
<path fill-rule="evenodd" clip-rule="evenodd" d="M131.269 11.5235H127.724V13.31H127.675C126.777 11.7488 125.421 11.1533 123.624 11.1533C119.817 11.1533 117.775 14.3078 117.775 17.7842C117.775 21.4698 119.507 24.5278 123.591 24.5278C125.225 24.5278 126.858 23.8518 127.675 22.4516H127.724V24.222C127.757 26.1372 126.809 27.5374 124.718 27.5374C123.395 27.5374 122.268 27.0707 121.925 25.7027H118.216C118.396 28.7606 121.532 29.9999 124.212 29.9999C130.469 29.9999 131.269 26.266 131.269 24.061V11.5235ZM124.539 21.7595C122.251 21.7595 121.516 19.6673 121.516 17.7359C121.516 15.8046 122.431 13.9216 124.539 13.9216C126.956 13.9216 127.724 15.869 127.724 18.0417C127.724 19.957 126.679 21.7434 124.539 21.7434V21.7595Z" fill="#231F20"/>
<path fill-rule="evenodd" clip-rule="evenodd" d="M132.299 19.426H140.222V16.2554H132.299V19.426Z" fill="#231F20"/>
<path fill-rule="evenodd" clip-rule="evenodd" d="M141.219 24.9141H154.517V21.486H145.352V6.40552H141.219V24.9141Z" fill="#231F20"/>
<path fill-rule="evenodd" clip-rule="evenodd" d="M155.383 24.9141H159.124V6.40552H155.383V24.9141Z" fill="#231F20"/>
<path fill-rule="evenodd" clip-rule="evenodd" d="M159.958 18.2349C159.958 22.4838 162.718 25.2842 166.983 25.2842C171.247 25.2842 174.04 22.4838 174.04 18.2349C174.04 13.9859 171.279 11.1533 166.983 11.1533C162.686 11.1533 159.958 13.9537 159.958 18.2349ZM163.699 18.2349C163.699 16.0782 164.467 13.9377 166.983 13.9377C169.498 13.9377 170.299 16.0943 170.299 18.2349C170.299 20.3754 169.531 22.516 166.983 22.516C164.434 22.516 163.699 20.3593 163.699 18.2349Z" fill="#231F20"/>
<path fill-rule="evenodd" clip-rule="evenodd" d="M187.175 11.5237H183.303L180.33 20.6975H180.281L177.21 11.5237H173.207L177.994 24.0934C178.419 25.1557 177.994 26.4754 176.703 26.6042C175.968 26.6363 175.233 26.5237 174.514 26.4754V29.5012C175.282 29.5816 176.033 29.6299 176.801 29.6299C179.383 29.6299 180.673 28.7447 181.49 26.6042L187.175 11.5237Z" fill="#231F20"/>
<path fill-rule="evenodd" clip-rule="evenodd" d="M196.455 24.9141H200V6.40552H196.259V13.1491H196.21H196.242C195.377 11.8293 193.792 11.1534 192.191 11.1534C188.188 11.1534 186.162 14.501 186.162 18.1062C186.162 21.7113 188.156 25.2843 192.272 25.2843C194.004 25.2843 195.54 24.6566 196.406 23.2081H196.455V24.9141ZM196.406 18.1705C196.406 20.3755 195.671 22.4999 193.204 22.4999C190.884 22.4999 189.92 20.295 189.92 18.2027C189.92 15.9978 190.769 13.9216 193.204 13.9216C195.638 13.9216 196.406 15.9978 196.406 18.1705Z" fill="#231F20"/>
<path fill-rule="evenodd" clip-rule="evenodd" d="M12.6613 0H25.9108L17.3828 13.7929H20.0131L28.4594 0H42.1336L33.6873 13.5193H42.6564L38.9642 20.2146H29.4886L36.8731 29.5494H23.1988L16.3535 20.2146H13.7232L20.5195 29.5494H7.38442L0 19.7157L12.6613 0Z" fill="#003878"/>
</g>
<defs>
<clipPath id="clip0_1385_6233">
<rect width="200" height="30" fill="white"/>
</clipPath>
</defs>
</svg>
