<svg width="105" height="30" viewBox="0 0 105 30" fill="none" xmlns="http://www.w3.org/2000/svg">
<rect width="105" height="30" fill="#B7B7B7"/>
<g id="Companys_catalog" clip-path="url(#clip0_814_2488)">
<rect width="1440" height="3368" transform="translate(-768 -402)" fill="#F4F4F4"/>
<g id="Grid">
<rect width="1366" height="5829" transform="translate(-731 -402)" fill="#F4F4F4"/>
</g>
<g id="Group 211">
<g id="Group 91">
<rect id="Rectangle 23" x="-37" y="-36" width="604" height="506" rx="3" fill="white"/>
</g>
<path id="Vector" d="M92.4238 19.6863V0.691421H82.7232V8.91165C80.3843 3.66837 75.1506 0.0192061 69.0734 0.0192061C62.9962 0.0192061 57.8583 3.59155 55.5003 8.7388C53.1231 3.59155 47.9469 0.0192061 41.9272 0.0192061C35.9074 0.0192061 30.8654 3.49552 28.4499 8.52753C26.0152 3.47631 20.8965 0 14.9534 0C6.69071 0 0 6.72215 0 15C0 23.2778 6.69071 30 14.9534 30C20.8965 30 26.0152 26.5237 28.4307 21.4917C30.8463 26.5237 35.9649 30 41.908 30C47.851 30 53.1231 26.4277 55.4811 21.2804C57.8583 26.4277 63.0345 30 69.0542 30C75.074 30 80.3843 26.3508 82.704 21.1268V29.3278H104.981V19.6863H92.4046H92.4238ZM14.9534 20.4738C11.9244 20.4738 9.47051 18.0154 9.47051 14.9808C9.47051 11.9462 11.9244 9.48784 14.9534 9.48784C17.9825 9.48784 20.4364 11.9462 20.4364 14.9808C20.4364 18.0154 17.9825 20.4738 14.9534 20.4738ZM48.3878 17.0935C48.637 17.4392 48.8287 17.8041 48.9821 18.2266C49.6723 20.3393 48.522 22.5864 46.4132 23.2778C44.707 23.8348 42.9049 23.1818 41.9272 21.799C41.6779 22.1447 41.3904 22.452 41.0261 22.7017C39.2432 24.0077 36.7318 23.6044 35.4473 21.8182C34.3929 20.3777 34.4504 18.4571 35.4473 17.0935C35.0447 16.959 34.6613 16.767 34.2971 16.5173C32.5141 15.2113 32.1116 12.7145 33.4152 10.9283C34.4696 9.48784 36.31 8.95006 37.9204 9.48784C37.9204 9.0653 37.9779 8.64277 38.1121 8.22023C38.8023 6.10755 41.0453 4.95519 43.1541 5.64661C44.8603 6.20359 45.9339 7.77849 45.9147 9.48784C46.3173 9.35339 46.7391 9.27657 47.18 9.27657C49.3847 9.27657 51.1868 11.0627 51.1868 13.2907C51.1868 15.0768 50.0173 16.5941 48.3878 17.1127V17.0935ZM82.7232 18.2074H73.5019C72.505 19.5903 70.8946 20.4738 69.0734 20.4738C66.0444 20.4738 63.5905 18.0154 63.5905 14.9808C63.5905 11.9462 66.0444 9.48784 69.0734 9.48784C70.933 9.48784 72.5625 10.4097 73.5594 11.831H82.7232V18.1882V18.2074Z" fill="#ED1C24"/>
</g>
</g>
<defs>
<clipPath id="clip0_814_2488">
<rect width="1440" height="3368" fill="white" transform="translate(-768 -402)"/>
</clipPath>
</defs>
</svg>
