<svg width="460" height="247" viewBox="0 0 460 247" fill="none" xmlns="http://www.w3.org/2000/svg">
<path d="M319 246V246.5H319.5V246H319ZM319 4V3.5H318.5V4H319ZM459.354 4.35355C459.549 4.15829 459.549 3.84171 459.354 3.64645L456.172 0.464466C455.976 0.269204 455.66 0.269204 455.464 0.464466C455.269 0.659728 455.269 0.976311 455.464 1.17157L458.293 4L455.464 6.82843C455.269 7.02369 455.269 7.34027 455.464 7.53553C455.66 7.7308 455.976 7.7308 456.172 7.53553L459.354 4.35355ZM-2.39166e-08 246.5L319 246.5V245.5L2.39166e-08 245.5L-2.39166e-08 246.5ZM319.5 246V4H318.5V246H319.5ZM319 4.5H459V3.5H319V4.5Z" fill="#CBFC00" fill-opacity="0.5"/>
</svg>
