<svg width="87" height="14" viewBox="0 0 87 14" fill="none" xmlns="http://www.w3.org/2000/svg">
<g id="logo" clip-path="url(#clip0_821_2730)">
<path id="Vector" d="M0.346436 13V0.420811H4.86494C6.48342 0.420811 7.71311 0.717436 8.55403 1.31068C9.40071 1.90393 9.82405 2.76501 9.82405 3.89391C9.82405 4.54476 9.6743 5.10057 9.37479 5.56135C9.07528 6.02213 8.63467 6.36195 8.05294 6.58082C8.70954 6.75361 9.21352 7.07615 9.56486 7.54845C9.9162 8.02075 10.0919 8.59672 10.0919 9.27637C10.0919 10.5089 9.70022 11.4362 8.91689 12.0583C8.13933 12.6746 6.98451 12.9885 5.45243 13H0.346436ZM3.37893 7.65213V10.6673H5.36603C5.9132 10.6673 6.33366 10.5435 6.62741 10.2958C6.92115 10.0424 7.06803 9.68818 7.06803 9.23317C7.06803 8.1849 6.54677 7.6579 5.50426 7.65213H3.37893ZM3.37893 5.66502H4.95997C5.62234 5.65927 6.09463 5.53831 6.37686 5.30217C6.65909 5.06602 6.8002 4.71756 6.8002 4.25677C6.8002 3.72688 6.64757 3.34674 6.3423 3.11635C6.03704 2.8802 5.54458 2.76213 4.86494 2.76213H3.37893V5.66502ZM14.9992 13H11.9753V0.420811H14.9992V13ZM20.1397 10.6673H25.4185V13H17.1072V0.420811H20.1397V10.6673ZM29.7296 10.6673H35.0084V13H26.6971V0.420811H29.7296V10.6673ZM39.5183 13H36.4944V0.420811H39.5183V13ZM52.132 13H49.1168L44.6588 5.17257V13H41.6263V0.420811H44.6588L49.1082 8.24827V0.420811H52.132V13ZM64.3484 11.4449C63.8818 11.9633 63.1993 12.3808 62.3008 12.6976C61.4023 13.0144 60.4174 13.1728 59.3461 13.1728C57.6988 13.1728 56.3827 12.6688 55.3978 11.6609C54.4129 10.6529 53.8859 9.25045 53.8167 7.45342L53.8081 6.36483C53.8081 5.12649 54.027 4.04655 54.4647 3.12499C54.9024 2.19768 55.5274 1.48635 56.3395 0.991022C57.1574 0.489927 58.102 0.23938 59.1733 0.23938C60.7399 0.23938 61.9552 0.599362 62.8192 1.31932C63.6889 2.03354 64.1957 3.10195 64.3397 4.5246H61.4196C61.3159 3.82192 61.0913 3.32082 60.7457 3.02132C60.4001 2.72181 59.9105 2.57206 59.2769 2.57206C58.5167 2.57206 57.9292 2.8946 57.5145 3.53969C57.0998 4.18478 56.8895 5.10633 56.8838 6.30435V7.06464C56.8838 8.32026 57.0969 9.26485 57.5231 9.89841C57.9551 10.5262 58.6319 10.8401 59.5534 10.8401C60.3425 10.8401 60.93 10.6644 61.3159 10.3131V8.36057H59.2078V6.27843H64.3484V11.4449ZM73.9124 7.66941H69.1433V10.6673H74.7763V13H66.1109V0.420811H74.7936V2.76213H69.1433V5.41448H73.9124V7.66941ZM80.6858 8.55929H79.0443V13H76.0118V0.420811H80.9623C82.454 0.420811 83.6204 0.751994 84.4613 1.41436C85.3022 2.07673 85.7227 3.01268 85.7227 4.22222C85.7227 5.09769 85.5441 5.82342 85.187 6.39939C84.8357 6.97537 84.2827 7.44191 83.5282 7.79901L86.1547 12.8704V13H82.9062L80.6858 8.55929ZM79.0443 6.21796H80.9623C81.5382 6.21796 81.9702 6.0682 82.2582 5.7687C82.552 5.46343 82.6988 5.0401 82.6988 4.49868C82.6988 3.95727 82.552 3.53393 82.2582 3.22867C81.9645 2.91764 81.5325 2.76213 80.9623 2.76213H79.0443V6.21796Z" fill="white"/>
</g>
<defs>
<clipPath id="clip0_821_2730">
<rect width="87" height="14" fill="white"/>
</clipPath>
</defs>
</svg>
